#!OML:ASF C:\Vicon Data\Big\jianyuan-13\jianyuan\Session 1\Capture.male.ASF
:FULLY-SPECIFIED
:DEGREES
14
root -7.842537 17.733867 -23.132286 8.945813 12.328314 2.269885
lowerback -10.201570 -1.802384 -3.180516 
upperback 2.347133 -1.987600 0.018823 
thorax 8.343702 -1.124660 1.466814 
lowerneck -6.269126 -1.318621 3.074257 
upperneck -4.481917 -1.992273 -2.578225 
head -0.398278 -1.044705 -1.338458 
rclavicle 0.000000 0.000000 
rhumerus -42.541662 -19.829801 -76.775875 
rradius 27.860210 
rwrist 31.666073 
rhand -17.564495 -15.481524 
rfingers 0.000000 
rthumb 8.690644 -45.282574 
lclavicle 0.000000 0.000000 
lhumerus -25.431685 18.934207 86.339904 
lradius 30.497989 
lwrist -44.404437 
lhand -19.221379 0.878229 
lfingers 0.000000 
lthumb 7.091445 30.739388 
rfemur -29.371818 3.428883 17.161425 
rtibia 25.183370 
rfoot -6.230956 -11.242590 
rtoes -28.633153 
lfemur 7.610464 -6.030260 -24.431375 
ltibia 11.468824 
lfoot -11.770851 7.057335 
ltoes -41.536662 
15
root -7.850598 17.739133 -23.066978 8.971497 12.312735 2.262091
lowerback -10.293715 -1.818632 -3.138461 
upperback 2.331904 -2.013125 0.035828 
thorax 8.380916 -1.135562 1.454435 
lowerneck -6.306318 -1.282147 3.004965 
upperneck -4.386342 -1.938278 -2.534844 
head -0.359824 -1.016704 -1.312677 
rclavicle 0.000000 0.000000 
rhumerus -42.470797 -19.704085 -76.819896 
rradius 27.916557 
rwrist 31.603966 
rhand -17.549231 -15.439715 
rfingers 0.000000 
rthumb 8.705382 -45.240164 
lclavicle 0.000000 0.000000 
lhumerus -25.759605 19.103893 86.085456 
lradius 30.384390 
lwrist -44.519994 
lhand -19.210386 0.929272 
lfingers 0.000000 
lthumb 7.102036 30.790123 
rfemur -29.167595 3.304324 17.311796 
rtibia 25.182842 
rfoot -6.380847 -11.054255 
rtoes -29.020471 
lfemur 7.496335 -6.068629 -24.354311 
ltibia 12.046098 
lfoot -11.722667 7.078669 
ltoes -41.591356 
16
root -7.858112 17.744454 -23.002850 9.056736 12.243556 2.170476
lowerback -10.483303 -1.836716 -3.004452 
upperback 2.309068 -2.054131 0.098513 
thorax 8.465123 -1.150943 1.433480 
lowerneck -6.401762 -1.243898 2.838435 
upperneck -4.263569 -1.877524 -2.507954 
head -0.302507 -0.984316 -1.275885 
rclavicle 0.000000 0.000000 
rhumerus -42.254034 -19.492108 -76.884909 
rradius 27.830250 
rwrist 31.400828 
rhand -17.621987 -15.380569 
rfingers 0.000000 
rthumb 8.635168 -45.184027 
lclavicle 0.000000 0.000000 
lhumerus -26.042287 19.739712 85.790614 
lradius 30.138412 
lwrist -45.078902 
lhand -19.284795 0.897516 
lfingers 0.000000 
lthumb 7.030206 30.760747 
rfemur -29.056281 3.173849 17.543784 
rtibia 25.179005 
rfoot -6.534384 -10.786788 
rtoes -29.174762 
lfemur 7.272677 -6.009205 -24.183071 
ltibia 12.656971 
lfoot -11.660911 7.047455 
ltoes -41.512110 
17
root -7.864079 17.749307 -22.938639 9.107083 12.243348 2.161496
lowerback -10.599079 -1.820717 -2.935354 
upperback 2.291533 -2.037026 0.082034 
thorax 8.508849 -1.138781 1.377313 
lowerneck -6.524649 -1.248981 2.935370 
upperneck -4.101328 -1.892707 -2.602883 
head -0.234081 -0.994017 -1.325142 
rclavicle 0.000000 0.000000 
rhumerus -42.196111 -19.505151 -76.923462 
rradius 27.878000 
rwrist 31.428621 
rhand -17.596988 -15.496489 
rfingers 0.000000 
rthumb 8.659307 -45.298851 
lclavicle 0.000000 0.000000 
lhumerus -26.328543 19.848051 85.496306 
lradius 29.973403 
lwrist -45.356325 
lhand -19.306635 0.923184 
lfingers 0.000000 
lthumb 7.009184 30.787163 
rfemur -28.902164 2.689747 17.780390 
rtibia 25.195764 
rfoot -6.578536 -10.270977 
rtoes -29.539939 
lfemur 7.116041 -6.047942 -24.103215 
ltibia 13.221017 
lfoot -11.518532 7.082055 
ltoes -41.659023 
18
root -7.872796 17.753932 -22.875904 9.110017 12.210536 2.145274
lowerback -10.653329 -1.774571 -2.894128 
upperback 2.280173 -1.977676 0.061929 
thorax 8.522525 -1.107273 1.342279 
lowerneck -6.650884 -1.256751 3.149926 
upperneck -3.939341 -1.920066 -2.755300 
head -0.166869 -1.011572 -1.413790 
rclavicle 0.000000 0.000000 
rhumerus -42.202092 -19.783843 -76.810938 
rradius 27.882524 
rwrist 31.765873 
rhand -17.633679 -15.442060 
rfingers 0.000000 
rthumb 8.623874 -45.245889 
lclavicle 0.000000 0.000000 
lhumerus -26.589283 19.984901 85.237085 
lradius 29.774503 
lwrist -45.629295 
lhand -19.334773 0.922661 
lfingers 0.000000 
lthumb 6.982019 30.787490 
rfemur -28.703355 2.495889 17.946561 
rtibia 25.227670 
rfoot -6.758249 -10.001973 
rtoes -29.653479 
lfemur 7.029857 -5.973496 -24.008865 
ltibia 13.750172 
lfoot -11.455213 7.064977 
ltoes -41.452642 
19
root -7.880194 17.760366 -22.813491 9.143959 12.194637 2.112537
lowerback -10.708781 -1.774955 -2.793612 
upperback 2.232538 -1.989665 0.048229 
thorax 8.499090 -1.106831 1.268362 
lowerneck -6.746346 -1.241319 3.199354 
upperneck -3.733235 -1.902693 -2.791979 
head -0.087202 -1.003966 -1.436146 
rclavicle 0.000000 0.000000 
rhumerus -42.164092 -19.851244 -76.817024 
rradius 27.851368 
rwrist 31.777592 
rhand -17.629821 -15.325939 
rfingers 0.000000 
rthumb 8.627570 -45.129674 
lclavicle 0.000000 0.000000 
lhumerus -26.971669 20.079259 84.926967 
lradius 29.690343 
lwrist -45.799643 
lhand -19.281187 0.946035 
lfingers 0.000000 
lthumb 7.033707 30.809192 
rfemur -28.536861 2.413250 18.085899 
rtibia 25.273519 
rfoot -6.988737 -9.820136 
rtoes -29.605524 
lfemur 6.903137 -5.844996 -23.881318 
ltibia 14.263550 
lfoot -11.170514 7.039343 
ltoes -41.744804 
20
root -7.888838 17.768003 -22.749581 9.163022 12.188409 2.101358
lowerback -10.792399 -1.789818 -2.754828 
upperback 2.218541 -2.013935 0.066928 
thorax 8.532678 -1.117233 1.259925 
lowerneck -6.790360 -1.208414 3.089038 
upperneck -3.625210 -1.850287 -2.733518 
head -0.043360 -0.976246 -1.398465 
rclavicle 0.000000 0.000000 
rhumerus -42.097126 -19.811775 -76.839485 
rradius 27.957951 
rwrist 31.629211 
rhand -17.586589 -15.389719 
rfingers 0.000000 
rthumb 8.669281 -45.191650 
lclavicle 0.000000 0.000000 
lhumerus -27.275854 20.396238 84.618303 
lradius 29.531900 
lwrist -46.168429 
lhand -19.217403 0.899635 
lfingers 0.000000 
lthumb 7.095292 30.760726 
rfemur -28.344652 2.333558 18.192687 
rtibia 25.324870 
rfoot -7.278951 -9.642985 
rtoes -29.269122 
lfemur 6.799657 -5.767871 -23.775772 
ltibia 14.770358 
lfoot -10.988329 7.042334 
ltoes -41.684931 
21
root -7.896393 17.774742 -22.686463 9.195151 12.185874 2.050243
lowerback -10.859622 -1.763830 -2.672558 
upperback 2.173856 -1.990185 0.080689 
thorax 8.519284 -1.101347 1.231625 
lowerneck -6.984751 -1.211023 3.248708 
upperneck -3.334912 -1.867073 -2.880843 
head 0.076595 -0.988137 -1.478064 
rclavicle 0.000000 0.000000 
rhumerus -42.048819 -19.724301 -76.899072 
rradius 27.985775 
rwrist 31.654351 
rhand -17.570527 -15.540110 
rfingers 0.000000 
rthumb 8.684771 -45.341499 
lclavicle 0.000000 0.000000 
lhumerus -27.590888 20.703797 84.296552 
lradius 29.345842 
lwrist -46.643865 
lhand -19.143819 0.841905 
lfingers 0.000000 
lthumb 7.166325 30.700585 
rfemur -28.186064 2.186901 18.359052 
rtibia 25.371945 
rfoot -7.524224 -9.387742 
rtoes -29.044682 
lfemur 6.637798 -5.608486 -23.616418 
ltibia 15.308501 
lfoot -10.669981 7.026991 
ltoes -42.186425 
22
root -7.903945 17.782464 -22.622850 9.228275 12.135054 2.003883
lowerback -10.969241 -1.744133 -2.609069 
upperback 2.158585 -1.971459 0.103242 
thorax 8.563713 -1.089823 1.220648 
lowerneck -7.096630 -1.215609 3.285737 
upperneck -3.153488 -1.876818 -2.977724 
head 0.150680 -0.994595 -1.518570 
rclavicle 0.000000 0.000000 
rhumerus -41.924354 -19.613090 -77.000957 
rradius 27.998474 
rwrist 31.369496 
rhand -17.644262 -15.555901 
rfingers 0.000000 
rthumb 8.613608 -45.360168 
lclavicle 0.000000 0.000000 
lhumerus -27.903899 21.119798 83.972766 
lradius 29.145828 
lwrist -47.206884 
lhand -19.167391 0.807366 
lfingers 0.000000 
lthumb 7.143555 30.666822 
rfemur -28.011159 2.127220 18.514133 
rtibia 25.399353 
rfoot -7.748861 -9.215452 
rtoes -29.062186 
lfemur 6.458645 -5.449575 -23.478225 
ltibia 15.902196 
lfoot -10.424967 7.022963 
ltoes -42.256673 
